<svg width="47" height="52" viewBox="0 0 47 52" fill="none" xmlns="http://www.w3.org/2000/svg">
<path d="M7.0168 42.78C7.95546 42.78 8.70746 43.036 9.2728 43.548C9.83813 44.0493 10.1208 44.86 10.1208 45.98V51.676H7.7368V46.572C7.7368 45.9427 7.6248 45.4733 7.4008 45.164C7.1768 44.844 6.81946 44.684 6.3288 44.684C5.60346 44.684 5.10746 44.9347 4.8408 45.436C4.57413 45.9267 4.4408 46.636 4.4408 47.564V51.676H2.0568V42.94H3.8808L4.2008 44.06H4.3288C4.5208 43.7613 4.75546 43.5213 5.0328 43.34C5.31013 43.148 5.61946 43.0093 5.9608 42.924C6.30213 42.828 6.65413 42.78 7.0168 42.78Z" fill="white"/>
<path d="M16.1724 42.78C16.9831 42.78 17.6764 42.9347 18.2524 43.244C18.8391 43.5533 19.2924 44.0013 19.6124 44.588C19.9324 45.1747 20.0924 45.8947 20.0924 46.748V47.9H14.4604C14.4818 48.572 14.6791 49.1 15.0524 49.484C15.4364 49.868 15.9644 50.06 16.6364 50.06C17.2018 50.06 17.7138 50.0067 18.1724 49.9C18.6311 49.7827 19.1058 49.6067 19.5964 49.372V51.212C19.1698 51.4253 18.7164 51.58 18.2364 51.676C17.7671 51.7827 17.1964 51.836 16.5244 51.836C15.6498 51.836 14.8764 51.676 14.2044 51.356C13.5324 51.0253 13.0044 50.5293 12.6204 49.868C12.2364 49.2067 12.0444 48.3747 12.0444 47.372C12.0444 46.348 12.2151 45.5 12.5564 44.828C12.9084 44.1453 13.3938 43.6333 14.0124 43.292C14.6311 42.9507 15.3511 42.78 16.1724 42.78ZM16.1884 44.476C15.7298 44.476 15.3458 44.6253 15.0364 44.924C14.7378 45.2227 14.5618 45.6867 14.5084 46.316H17.8524C17.8524 45.964 17.7884 45.6493 17.6604 45.372C17.5431 45.0947 17.3618 44.876 17.1164 44.716C16.8711 44.556 16.5618 44.476 16.1884 44.476Z" fill="white"/>
<path d="M23.793 51.676L20.465 42.94H22.961L24.641 47.916C24.705 48.108 24.7584 48.3107 24.801 48.524C24.8544 48.7373 24.8917 48.9453 24.913 49.148C24.945 49.3507 24.9664 49.5373 24.977 49.708H25.041C25.0517 49.5267 25.073 49.3347 25.105 49.132C25.137 48.9293 25.1744 48.7267 25.217 48.524C25.2704 48.3107 25.329 48.108 25.393 47.916L27.073 42.94H29.569L26.241 51.676H23.793Z" fill="white"/>
<path d="M34.4224 42.78C35.2331 42.78 35.9264 42.9347 36.5024 43.244C37.0891 43.5533 37.5424 44.0013 37.8624 44.588C38.1824 45.1747 38.3424 45.8947 38.3424 46.748V47.9H32.7104C32.7318 48.572 32.9291 49.1 33.3024 49.484C33.6864 49.868 34.2144 50.06 34.8864 50.06C35.4518 50.06 35.9638 50.0067 36.4224 49.9C36.8811 49.7827 37.3558 49.6067 37.8464 49.372V51.212C37.4198 51.4253 36.9664 51.58 36.4864 51.676C36.0171 51.7827 35.4464 51.836 34.7744 51.836C33.8998 51.836 33.1264 51.676 32.4544 51.356C31.7824 51.0253 31.2544 50.5293 30.8704 49.868C30.4864 49.2067 30.2944 48.3747 30.2944 47.372C30.2944 46.348 30.4651 45.5 30.8064 44.828C31.1584 44.1453 31.6438 43.6333 32.2624 43.292C32.8811 42.9507 33.6011 42.78 34.4224 42.78ZM34.4384 44.476C33.9798 44.476 33.5958 44.6253 33.2864 44.924C32.9878 45.2227 32.8118 45.6867 32.7584 46.316H36.1024C36.1024 45.964 36.0384 45.6493 35.9104 45.372C35.7931 45.0947 35.6118 44.876 35.3664 44.716C35.1211 44.556 34.8118 44.476 34.4384 44.476Z" fill="white"/>
<path d="M45.1555 42.78C45.2729 42.78 45.4115 42.7853 45.5715 42.796C45.7315 42.8067 45.8595 42.8227 45.9555 42.844L45.7795 45.084C45.7049 45.0627 45.5929 45.0467 45.4435 45.036C45.3049 45.0147 45.1822 45.004 45.0755 45.004C44.7662 45.004 44.4675 45.0467 44.1795 45.132C43.8915 45.2067 43.6302 45.3293 43.3955 45.5C43.1715 45.6707 42.9902 45.9 42.8515 46.188C42.7235 46.4653 42.6595 46.812 42.6595 47.228V51.676H40.2755V42.94H42.0835L42.4355 44.412H42.5475C42.7182 44.1133 42.9315 43.8413 43.1875 43.596C43.4435 43.3507 43.7369 43.1533 44.0675 43.004C44.4089 42.8547 44.7715 42.78 45.1555 42.78Z" fill="white"/>
<path d="M24.48 26.788C24.48 28.78 24.228 30.592 23.724 32.224C23.244 33.832 22.5 35.224 21.492 36.4C20.508 37.576 19.236 38.476 17.676 39.1C16.14 39.724 14.328 40.036 12.24 40.036C10.152 40.036 8.328 39.724 6.768 39.1C5.232 38.452 3.96 37.552 2.952 36.4C1.968 35.224 1.224 33.82 0.72 32.188C0.24 30.556 0 28.744 0 26.752C0 24.088 0.432 21.772 1.296 19.804C2.184 17.836 3.528 16.312 5.328 15.232C7.152 14.128 9.468 13.576 12.276 13.576C15.06 13.576 17.352 14.128 19.152 15.232C20.952 16.312 22.284 17.848 23.148 19.84C24.036 21.808 24.48 24.124 24.48 26.788ZM5.724 26.788C5.724 28.588 5.952 30.136 6.408 31.432C6.864 32.728 7.572 33.724 8.532 34.42C9.492 35.116 10.728 35.464 12.24 35.464C13.8 35.464 15.048 35.116 15.984 34.42C16.944 33.724 17.64 32.728 18.072 31.432C18.528 30.136 18.756 28.588 18.756 26.788C18.756 24.076 18.252 21.952 17.244 20.416C16.236 18.88 14.58 18.112 12.276 18.112C10.74 18.112 9.492 18.46 8.532 19.156C7.572 19.852 6.864 20.848 6.408 22.144C5.952 23.44 5.724 24.988 5.724 26.788Z" fill="white"/>
<path d="M33.1523 13.972C35.4803 13.972 37.4003 14.26 38.9123 14.836C40.4243 15.388 41.5523 16.24 42.2963 17.392C43.0403 18.52 43.4123 19.948 43.4123 21.676C43.4123 22.852 43.1843 23.884 42.7283 24.772C42.2963 25.636 41.7083 26.38 40.9643 27.004C40.2443 27.604 39.4643 28.096 38.6243 28.48L46.1843 39.676H40.1363L34.0163 29.812H31.1003V39.676H25.6643V13.972H33.1523ZM32.7563 18.436H31.1003V25.384H32.8643C34.0643 25.384 35.0363 25.252 35.7803 24.988C36.5243 24.724 37.0643 24.328 37.4003 23.8C37.7363 23.248 37.9043 22.588 37.9043 21.82C37.9043 21.004 37.7123 20.356 37.3283 19.876C36.9683 19.372 36.4043 19.012 35.6363 18.796C34.8923 18.556 33.9323 18.436 32.7563 18.436Z" fill="white"/>
<path d="M9.00953 0C10.2415 0 11.2285 0.336 11.9705 1.008C12.7125 1.666 13.0835 2.73 13.0835 4.2V11.676H9.95453V4.977C9.95453 4.151 9.80753 3.535 9.51353 3.129C9.21953 2.709 8.75053 2.499 8.10653 2.499C7.15453 2.499 6.50353 2.828 6.15353 3.486C5.80353 4.13 5.62853 5.061 5.62853 6.279V11.676H2.49953V0.210001H4.89353L5.31353 1.68H5.48153C5.73353 1.288 6.04153 0.973001 6.40553 0.735001C6.76953 0.483 7.17553 0.301 7.62353 0.189C8.07153 0.063 8.53353 0 9.00953 0Z" fill="white"/>
<path d="M26.7173 5.922C26.7173 6.874 26.5843 7.721 26.3183 8.463C26.0663 9.205 25.6953 9.835 25.2053 10.353C24.7293 10.857 24.1483 11.242 23.4623 11.508C22.7763 11.76 21.9993 11.886 21.1313 11.886C20.3333 11.886 19.5913 11.76 18.9053 11.508C18.2333 11.242 17.6523 10.857 17.1623 10.353C16.6723 9.835 16.2873 9.205 16.0073 8.463C15.7413 7.721 15.6083 6.874 15.6083 5.922C15.6083 4.648 15.8323 3.577 16.2803 2.709C16.7283 1.827 17.3723 1.155 18.2123 0.693001C19.0523 0.231 20.0463 0 21.1943 0C22.2723 0 23.2243 0.231 24.0503 0.693001C24.8763 1.155 25.5273 1.827 26.0033 2.709C26.4793 3.577 26.7173 4.648 26.7173 5.922ZM18.8003 5.922C18.8003 6.678 18.8773 7.315 19.0313 7.833C19.1993 8.337 19.4583 8.722 19.8083 8.988C20.1583 9.24 20.6133 9.366 21.1733 9.366C21.7333 9.366 22.1813 9.24 22.5173 8.988C22.8673 8.722 23.1193 8.337 23.2733 7.833C23.4413 7.315 23.5253 6.678 23.5253 5.922C23.5253 5.166 23.4413 4.536 23.2733 4.032C23.1193 3.528 22.8673 3.15 22.5173 2.898C22.1673 2.646 21.7123 2.52 21.1523 2.52C20.3263 2.52 19.7243 2.807 19.3463 3.381C18.9823 3.941 18.8003 4.788 18.8003 5.922Z" fill="white"/>
<path d="M37.4401 7.665C37.3841 7.427 37.3001 7.077 37.1881 6.615C37.0901 6.139 36.9781 5.635 36.8521 5.103C36.7261 4.557 36.6071 4.06 36.4951 3.612C36.3831 3.15 36.3061 2.814 36.2641 2.604H36.1801C36.1381 2.814 36.0611 3.15 35.9491 3.612C35.8511 4.06 35.7391 4.557 35.6131 5.103C35.4871 5.635 35.3681 6.139 35.2561 6.615C35.1441 7.091 35.0601 7.455 35.0041 7.707L34.0801 11.676H30.7201L27.4651 0.210001H30.5731L31.8961 5.292C31.9941 5.642 32.0781 6.062 32.1481 6.552C32.2321 7.042 32.3091 7.518 32.3791 7.98C32.4491 8.428 32.4981 8.785 32.5261 9.051H32.6101C32.6241 8.855 32.6521 8.596 32.6941 8.274C32.7361 7.938 32.7851 7.595 32.8411 7.245C32.9111 6.895 32.9671 6.58 33.0091 6.3C33.0651 6.006 33.1071 5.81 33.1351 5.712L34.5421 0.210001H37.9861L39.3301 5.712C39.3861 5.908 39.4491 6.223 39.5191 6.657C39.6031 7.091 39.6731 7.532 39.7291 7.98C39.7991 8.428 39.8341 8.785 39.8341 9.051H39.9181C39.9461 8.813 39.9951 8.47 40.0651 8.022C40.1351 7.56 40.2121 7.077 40.2961 6.573C40.3941 6.069 40.4921 5.642 40.5901 5.292L41.9551 0.210001H45.0211L41.7241 11.676H38.3221L37.4401 7.665Z" fill="white"/>
</svg>
